<?xml version="1.0" encoding="UTF-8"?>
<svg data-bbox="20.5 37 159 126" viewBox="0 0 200 200" height="200" width="200" xmlns="http://www.w3.org/2000/svg" data-type="color">
    <g>
        <path clip-rule="evenodd" fill-rule="evenodd" d="M60.412 42.734a5.73 5.73 0 0 1-5.727 5.734 5.73 5.73 0 0 1-5.727-5.734A5.73 5.73 0 0 1 54.685 37a5.73 5.73 0 0 1 5.727 5.734z"/>
        <path d="M37.423 105.738l40.211 40.328c3.72 3.731 3.72 9.773 0 13.504l-.623.625a9.536 9.536 0 0 1-13.498.011l-.011-.011-40.212-40.328c-3.72-3.731-3.72-9.773 0-13.504l.623-.625a9.536 9.536 0 0 1 13.498-.011c.005.003.008.007.012.011z" fill="#E7E7EB" clip-rule="evenodd" fill-rule="evenodd" data-color="1"/>
        <path d="M62.79 145.922l99.788-100.081a9.536 9.536 0 0 1 13.498-.011l.011.011.623.625c3.72 3.731 3.72 9.773 0 13.504L76.923 160.051a9.536 9.536 0 0 1-13.498.011l-.011-.011-.623-.625c-3.721-3.731-3.721-9.773-.001-13.504z" fill="#9E3FFD" clip-rule="evenodd" fill-rule="evenodd" data-color="2"/>
    </g>
</svg>
